# xmcd
#
# Track frame offsets:
#	150
#	19047
#	35809
#	54626
#	71050
#	89243
#	108191
#	123621
#	142316
#	162156
#	177250
#	196147
#	212909
#	231726
#	248150
#	266343
#	285291
#	300721
#	319416
#	339256
#
# Disc length: 4722 seconds
#
# Revision: 1
# Processed by: cddbd v1.5.2PL0 Copyright (c) Steve Scherf et al.
# Submitted via: audiograbber 1.83.01
#
DISCID=36127014
DTITLE=Various Artist - K0735-C0706
DYEAR=2007
DGENRE=Country
TTITLE0=Green, Pat - Dixie Lullabye (vocal)
TTITLE1=Big and Rich - Lost In This Moment (vocal)
TTITLE2=Strait, George - Wrapped (vocal)
TTITLE3=Swift, Taylor - Teardrops On My Guitar (vocal)
TTITLE4=Little Big Town - A Little More You (vocal)
TTITLE5=Paisley, Brad - Ticks (vocal)
TTITLE6=Atkins, Rodney - These Are My People (vocal)
TTITLE7=Lambert, Miranda - Famous In A Small Town (vocal)
TTITLE8=Wreckers, The - Tennessee (vocal)
TTITLE9=Morgan, Craig - Tough (vocal)
TTITLE10=Green, Pat - Dixie Lullabye
TTITLE11=Big and Rich - Lost In This Moment
TTITLE12=Strait, George - Wrapped
TTITLE13=Swift, Taylor - Teardrops On My Guitar
TTITLE14=Little Big Town - A Little More From You
TTITLE15=Paisley, Brad - Ticks
TTITLE16=Atkins, Rodney - These Are My People
TTITLE17=Lambert, Miranda - Famous In A Small Town
TTITLE18=Wreckers, The - Tennessee
TTITLE19=Morgan, Craig - Tough
EXTD=
EXTT0=
EXTT1=
EXTT2=
EXTT3=
EXTT4=
EXTT5=
EXTT6=
EXTT7=
EXTT8=
EXTT9=
EXTT10=
EXTT11=
EXTT12=
EXTT13=
EXTT14=
EXTT15=
EXTT16=
EXTT17=
EXTT18=
EXTT19=
PLAYORDER=
